<svg width="717" height="237" viewBox="0 0 717 237" fill="none" xmlns="http://www.w3.org/2000/svg">
<rect width="717" height="237" rx="13" fill="white"/>
<path d="M128.71 43C87.4541 43 54 77.3835 54 119.799C54 153.731 75.4066 182.519 105.091 192.674C108.825 193.384 110.196 191.008 110.196 188.979C110.196 187.148 110.126 181.098 110.095 174.681C89.3098 179.326 84.924 165.619 84.924 165.619C81.5256 156.742 76.6289 154.382 76.6289 154.382C69.8508 149.616 77.1398 149.713 77.1398 149.713C84.6422 150.255 88.5926 157.628 88.5926 157.628C95.2559 169.369 106.07 165.974 110.333 164.012C111.004 159.048 112.94 155.66 115.076 153.743C98.4826 151.8 81.0381 145.215 81.0381 115.788C81.0381 107.404 83.9566 100.552 88.7361 95.1742C87.9604 93.2396 85.4033 85.4287 89.4598 74.8501C89.4598 74.8501 95.7334 72.786 110.01 82.7224C115.969 81.0203 122.361 80.1674 128.71 80.1385C135.059 80.1674 141.455 81.0203 147.426 82.7224C161.686 72.786 167.951 74.8501 167.951 74.8501C172.017 85.4287 169.459 93.2396 168.683 95.1742C173.473 100.552 176.372 107.403 176.372 115.788C176.372 145.285 158.895 151.78 142.259 153.681C144.938 156.065 147.326 160.739 147.326 167.903C147.326 178.179 147.239 186.449 147.239 188.979C147.239 191.023 148.584 193.418 152.371 192.663C182.04 182.497 203.419 153.72 203.419 119.799C203.419 77.3835 169.97 43 128.71 43Z" fill="#161614"/>
<path d="M81.9815 152.402C81.8174 152.783 81.2326 152.898 80.7012 152.636C80.1592 152.386 79.8545 151.865 80.0303 151.482C80.1914 151.089 80.7762 150.98 81.317 151.244C81.8602 151.494 82.1695 152.019 81.9815 152.402V152.402ZM85.6565 155.772C85.3002 156.112 84.6035 155.954 84.1307 155.418C83.642 154.882 83.5506 154.167 83.9121 153.822C84.2795 153.482 84.9551 153.641 85.4449 154.177C85.9336 154.718 86.0285 155.43 85.6559 155.773L85.6565 155.772ZM88.1778 160.085C87.7195 160.412 86.9707 160.106 86.5084 159.423C86.0508 158.74 86.0508 157.921 86.5184 157.593C86.9824 157.264 87.7195 157.56 88.1883 158.237C88.6453 158.932 88.6453 159.751 88.1772 160.086L88.1778 160.085ZM92.441 165.08C92.0315 165.544 91.1596 165.42 90.5209 164.786C89.8682 164.167 89.686 163.288 90.0967 162.824C90.511 162.359 91.3881 162.49 92.0315 163.118C92.6801 163.736 92.8781 164.621 92.4416 165.08H92.441ZM97.9512 166.767C97.7713 167.368 96.9311 167.641 96.085 167.386C95.2401 167.123 94.6869 166.418 94.8574 165.81C95.0332 165.205 95.877 164.92 96.7295 165.193C97.5733 165.455 98.1276 166.155 97.9518 166.767H97.9512ZM104.223 167.482C104.244 168.115 103.526 168.64 102.638 168.652C101.745 168.672 101.022 168.159 101.013 167.536C101.013 166.897 101.714 166.376 102.607 166.361C103.495 166.343 104.223 166.852 104.223 167.482V167.482ZM110.384 167.239C110.49 167.857 109.873 168.492 108.991 168.66C108.124 168.823 107.321 168.442 107.21 167.829C107.102 167.196 107.732 166.561 108.597 166.397C109.481 166.239 110.271 166.611 110.384 167.239" fill="#161614"/>
<path d="M295.734 138.285C294 140.77 291.574 142.633 288.457 143.875C285.363 145.094 281.754 145.703 277.629 145.703C273.457 145.703 269.754 144.73 266.52 142.785C263.285 140.816 260.777 138.027 258.996 134.418C257.238 130.809 256.336 126.625 256.289 121.867V117.402C256.289 109.691 258.082 103.715 261.668 99.4727C265.277 95.2305 270.34 93.1094 276.855 93.1094C282.199 93.1094 286.5 94.4805 289.758 97.2227C293.016 99.9414 295.008 103.809 295.734 108.824H288.984C287.719 102.051 283.688 98.6641 276.891 98.6641C272.367 98.6641 268.934 100.258 266.59 103.445C264.27 106.609 263.098 111.203 263.074 117.227V121.41C263.074 127.152 264.387 131.723 267.012 135.121C269.637 138.496 273.188 140.184 277.664 140.184C280.195 140.184 282.41 139.902 284.309 139.34C286.207 138.777 287.777 137.828 289.02 136.492V124.996H277.172V119.512H295.734V138.285ZM313.066 145H306.562V106.961H313.066V145ZM306.035 96.8711C306.035 95.8164 306.352 94.9258 306.984 94.1992C307.641 93.4727 308.602 93.1094 309.867 93.1094C311.133 93.1094 312.094 93.4727 312.75 94.1992C313.406 94.9258 313.734 95.8164 313.734 96.8711C313.734 97.9258 313.406 98.8047 312.75 99.5078C312.094 100.211 311.133 100.562 309.867 100.562C308.602 100.562 307.641 100.211 306.984 99.5078C306.352 98.8047 306.035 97.9258 306.035 96.8711ZM332.332 97.75V106.961H339.434V111.988H332.332V135.578C332.332 137.102 332.648 138.25 333.281 139.023C333.914 139.773 334.992 140.148 336.516 140.148C337.266 140.148 338.297 140.008 339.609 139.727V145C337.898 145.469 336.234 145.703 334.617 145.703C331.711 145.703 329.52 144.824 328.043 143.066C326.566 141.309 325.828 138.812 325.828 135.578V111.988H318.902V106.961H325.828V97.75H332.332ZM353.566 111.566C356.449 108.027 360.199 106.258 364.816 106.258C372.855 106.258 376.91 110.793 376.98 119.863V145H370.477V119.828C370.453 117.086 369.82 115.059 368.578 113.746C367.359 112.434 365.449 111.777 362.848 111.777C360.738 111.777 358.887 112.34 357.293 113.465C355.699 114.59 354.457 116.066 353.566 117.895V145H347.062V91H353.566V111.566ZM410.203 141.238C407.672 144.215 403.957 145.703 399.059 145.703C395.004 145.703 391.91 144.531 389.777 142.188C387.668 139.82 386.602 136.328 386.578 131.711V106.961H393.082V131.535C393.082 137.301 395.426 140.184 400.113 140.184C405.082 140.184 408.387 138.332 410.027 134.629V106.961H416.531V145H410.344L410.203 141.238ZM458.648 126.402C458.648 132.215 457.312 136.891 454.641 140.43C451.969 143.945 448.383 145.703 443.883 145.703C439.078 145.703 435.363 144.004 432.738 140.605L432.422 145H426.445V91H432.949V111.145C435.574 107.887 439.195 106.258 443.812 106.258C448.43 106.258 452.051 108.004 454.676 111.496C457.324 114.988 458.648 119.77 458.648 125.84V126.402ZM452.145 125.664C452.145 121.234 451.289 117.812 449.578 115.398C447.867 112.984 445.406 111.777 442.195 111.777C437.906 111.777 434.824 113.77 432.949 117.754V134.207C434.941 138.191 438.047 140.184 442.266 140.184C445.383 140.184 447.809 138.977 449.543 136.562C451.277 134.148 452.145 130.516 452.145 125.664ZM492.504 124.961V145H485.754V93.8125H504.633C510.234 93.8125 514.617 95.2422 517.781 98.1016C520.969 100.961 522.562 104.746 522.562 109.457C522.562 114.426 521.004 118.258 517.887 120.953C514.793 123.625 510.352 124.961 504.562 124.961H492.504ZM492.504 119.441H504.633C508.242 119.441 511.008 118.598 512.93 116.91C514.852 115.199 515.812 112.738 515.812 109.527C515.812 106.48 514.852 104.043 512.93 102.215C511.008 100.387 508.371 99.4375 505.02 99.3672H492.504V119.441ZM553.219 145C552.844 144.25 552.539 142.914 552.305 140.992C549.281 144.133 545.672 145.703 541.477 145.703C537.727 145.703 534.645 144.648 532.23 142.539C529.84 140.406 528.645 137.711 528.645 134.453C528.645 130.492 530.145 127.422 533.145 125.242C536.168 123.039 540.41 121.938 545.871 121.938H552.199V118.949C552.199 116.676 551.52 114.871 550.16 113.535C548.801 112.176 546.797 111.496 544.148 111.496C541.828 111.496 539.883 112.082 538.312 113.254C536.742 114.426 535.957 115.844 535.957 117.508H529.418C529.418 115.609 530.086 113.781 531.422 112.023C532.781 110.242 534.609 108.836 536.906 107.805C539.227 106.773 541.77 106.258 544.535 106.258C548.918 106.258 552.352 107.359 554.836 109.562C557.32 111.742 558.609 114.754 558.703 118.598V136.105C558.703 139.598 559.148 142.375 560.039 144.438V145H553.219ZM542.426 140.043C544.465 140.043 546.398 139.516 548.227 138.461C550.055 137.406 551.379 136.035 552.199 134.348V126.543H547.102C539.133 126.543 535.148 128.875 535.148 133.539C535.148 135.578 535.828 137.172 537.188 138.32C538.547 139.469 540.293 140.043 542.426 140.043ZM567.352 125.664C567.352 119.734 568.723 115.023 571.465 111.531C574.207 108.016 577.84 106.258 582.363 106.258C587.004 106.258 590.625 107.898 593.227 111.18L593.543 106.961H599.484V144.086C599.484 149.008 598.02 152.887 595.09 155.723C592.184 158.559 588.27 159.977 583.348 159.977C580.605 159.977 577.922 159.391 575.297 158.219C572.672 157.047 570.668 155.441 569.285 153.402L572.66 149.5C575.449 152.945 578.859 154.668 582.891 154.668C586.055 154.668 588.516 153.777 590.273 151.996C592.055 150.215 592.945 147.707 592.945 144.473V141.203C590.344 144.203 586.793 145.703 582.293 145.703C577.84 145.703 574.23 143.91 571.465 140.324C568.723 136.738 567.352 131.852 567.352 125.664ZM573.891 126.402C573.891 130.691 574.77 134.066 576.527 136.527C578.285 138.965 580.746 140.184 583.91 140.184C588.012 140.184 591.023 138.32 592.945 134.594V117.227C590.953 113.594 587.965 111.777 583.98 111.777C580.816 111.777 578.344 113.008 576.562 115.469C574.781 117.93 573.891 121.574 573.891 126.402ZM625.113 145.703C619.957 145.703 615.762 144.016 612.527 140.641C609.293 137.242 607.676 132.707 607.676 127.035V125.84C607.676 122.066 608.391 118.703 609.82 115.75C611.273 112.773 613.289 110.453 615.867 108.789C618.469 107.102 621.281 106.258 624.305 106.258C629.25 106.258 633.094 107.887 635.836 111.145C638.578 114.402 639.949 119.066 639.949 125.137V127.844H614.18C614.273 131.594 615.363 134.629 617.449 136.949C619.559 139.246 622.23 140.395 625.465 140.395C627.762 140.395 629.707 139.926 631.301 138.988C632.895 138.051 634.289 136.809 635.484 135.262L639.457 138.355C636.27 143.254 631.488 145.703 625.113 145.703ZM624.305 111.602C621.68 111.602 619.477 112.562 617.695 114.484C615.914 116.383 614.812 119.055 614.391 122.5H633.445V122.008C633.258 118.703 632.367 116.148 630.773 114.344C629.18 112.516 627.023 111.602 624.305 111.602ZM669.656 134.91C669.656 133.152 668.988 131.793 667.652 130.832C666.34 129.848 664.031 129.004 660.727 128.301C657.445 127.598 654.832 126.754 652.887 125.77C650.965 124.785 649.535 123.613 648.598 122.254C647.684 120.895 647.227 119.277 647.227 117.402C647.227 114.285 648.539 111.648 651.164 109.492C653.812 107.336 657.188 106.258 661.289 106.258C665.602 106.258 669.094 107.371 671.766 109.598C674.461 111.824 675.809 114.672 675.809 118.141H669.27C669.27 116.359 668.508 114.824 666.984 113.535C665.484 112.246 663.586 111.602 661.289 111.602C658.922 111.602 657.07 112.117 655.734 113.148C654.398 114.18 653.73 115.527 653.73 117.191C653.73 118.762 654.352 119.945 655.594 120.742C656.836 121.539 659.074 122.301 662.309 123.027C665.566 123.754 668.203 124.621 670.219 125.629C672.234 126.637 673.723 127.855 674.684 129.285C675.668 130.691 676.16 132.414 676.16 134.453C676.16 137.852 674.801 140.582 672.082 142.645C669.363 144.684 665.836 145.703 661.5 145.703C658.453 145.703 655.758 145.164 653.414 144.086C651.07 143.008 649.23 141.508 647.895 139.586C646.582 137.641 645.926 135.543 645.926 133.293H652.43C652.547 135.473 653.414 137.207 655.031 138.496C656.672 139.762 658.828 140.395 661.5 140.395C663.961 140.395 665.93 139.902 667.406 138.918C668.906 137.91 669.656 136.574 669.656 134.91Z" fill="black"/>
</svg>
